<mxfile host="Electron" modified="2023-12-06T11:56:21.421Z" agent="Mozilla/5.0 (Windows NT 10.0; Win64; x64) AppleWebKit/537.36 (KHTML, like Gecko) draw.io/22.0.2 Chrome/114.0.5735.289 Electron/25.8.4 Safari/537.36" etag="mnBB2ajz49Xl1q4n8zfW" version="22.0.2" type="device">
  <diagram name="Page-1" id="rUq8kp_Xer2Vj2vWnPXb">
    <mxGraphModel dx="1434" dy="836" grid="1" gridSize="10" guides="1" tooltips="1" connect="1" arrows="1" fold="1" page="1" pageScale="1" pageWidth="850" pageHeight="1100" math="0" shadow="0">
      <root>
        <mxCell id="0" />
        <mxCell id="1" parent="0" />
        <mxCell id="gTq0HfhYKbJOwFUmwhoU-1" value="&lt;b&gt;Video Game Hub&lt;/b&gt;" style="text;html=1;strokeColor=none;fillColor=none;align=center;verticalAlign=middle;whiteSpace=wrap;rounded=0;" vertex="1" parent="1">
          <mxGeometry x="353" y="40" width="145" height="30" as="geometry" />
        </mxCell>
        <mxCell id="gTq0HfhYKbJOwFUmwhoU-2" value="&lt;b&gt;Find out information about top grossing video games on Steam!&lt;/b&gt;" style="text;html=1;strokeColor=none;fillColor=none;align=center;verticalAlign=middle;whiteSpace=wrap;rounded=0;" vertex="1" parent="1">
          <mxGeometry x="185" y="80" width="480" height="30" as="geometry" />
        </mxCell>
        <mxCell id="gTq0HfhYKbJOwFUmwhoU-4" value="&lt;b&gt;&lt;i&gt;by Alex Murphy&lt;/i&gt;&lt;/b&gt;" style="text;html=1;strokeColor=none;fillColor=none;align=center;verticalAlign=middle;whiteSpace=wrap;rounded=0;" vertex="1" parent="1">
          <mxGeometry x="185" y="120" width="480" height="30" as="geometry" />
        </mxCell>
        <mxCell id="gTq0HfhYKbJOwFUmwhoU-6" value="" style="rounded=1;whiteSpace=wrap;html=1;movable=1;resizable=1;rotatable=1;deletable=1;editable=1;locked=0;connectable=1;" vertex="1" parent="1">
          <mxGeometry x="90" y="170" width="670" height="240" as="geometry" />
        </mxCell>
        <mxCell id="gTq0HfhYKbJOwFUmwhoU-7" value="Game 1" style="rounded=1;whiteSpace=wrap;html=1;movable=1;resizable=1;rotatable=1;deletable=1;editable=1;locked=0;connectable=1;" vertex="1" parent="1">
          <mxGeometry x="210" y="200" width="120" height="60" as="geometry" />
        </mxCell>
        <mxCell id="gTq0HfhYKbJOwFUmwhoU-8" value="&lt;b&gt;Price&lt;br&gt;Rating&lt;br&gt;Platforms&lt;br&gt;Current Players&lt;br&gt;&lt;/b&gt;" style="text;html=1;strokeColor=none;fillColor=none;align=center;verticalAlign=middle;whiteSpace=wrap;rounded=0;movable=1;resizable=1;rotatable=1;deletable=1;editable=1;locked=0;connectable=1;" vertex="1" parent="1">
          <mxGeometry x="515" y="190" width="180" height="80" as="geometry" />
        </mxCell>
        <mxCell id="gTq0HfhYKbJOwFUmwhoU-9" value="&lt;b&gt;Top user reviews:&lt;br&gt;&lt;/b&gt;" style="text;html=1;strokeColor=none;fillColor=none;align=center;verticalAlign=middle;whiteSpace=wrap;rounded=0;movable=1;resizable=1;rotatable=1;deletable=1;editable=1;locked=0;connectable=1;" vertex="1" parent="1">
          <mxGeometry x="335.5" y="280" width="180" height="30" as="geometry" />
        </mxCell>
        <mxCell id="gTq0HfhYKbJOwFUmwhoU-11" value="review 1" style="rounded=1;whiteSpace=wrap;html=1;movable=1;resizable=1;rotatable=1;deletable=1;editable=1;locked=0;connectable=1;" vertex="1" parent="1">
          <mxGeometry x="288" y="310" width="274.5" height="20" as="geometry" />
        </mxCell>
        <mxCell id="gTq0HfhYKbJOwFUmwhoU-12" value="review 2" style="rounded=1;whiteSpace=wrap;html=1;movable=1;resizable=1;rotatable=1;deletable=1;editable=1;locked=0;connectable=1;" vertex="1" parent="1">
          <mxGeometry x="288.25" y="340" width="274.5" height="20" as="geometry" />
        </mxCell>
        <mxCell id="gTq0HfhYKbJOwFUmwhoU-13" value="review 3" style="rounded=1;whiteSpace=wrap;html=1;movable=1;resizable=1;rotatable=1;deletable=1;editable=1;locked=0;connectable=1;" vertex="1" parent="1">
          <mxGeometry x="288" y="370" width="274.5" height="20" as="geometry" />
        </mxCell>
        <mxCell id="gTq0HfhYKbJOwFUmwhoU-49" value="" style="rounded=1;whiteSpace=wrap;html=1;movable=1;resizable=1;rotatable=1;deletable=1;editable=1;locked=0;connectable=1;" vertex="1" parent="1">
          <mxGeometry x="90.5" y="430" width="670" height="240" as="geometry" />
        </mxCell>
        <mxCell id="gTq0HfhYKbJOwFUmwhoU-50" value="Game 2" style="rounded=1;whiteSpace=wrap;html=1;movable=1;resizable=1;rotatable=1;deletable=1;editable=1;locked=0;connectable=1;" vertex="1" parent="1">
          <mxGeometry x="210.5" y="460" width="120" height="60" as="geometry" />
        </mxCell>
        <mxCell id="gTq0HfhYKbJOwFUmwhoU-51" value="&lt;b&gt;Price&lt;br&gt;Rating&lt;br&gt;Platforms&lt;br&gt;Current Players&lt;br&gt;&lt;/b&gt;" style="text;html=1;strokeColor=none;fillColor=none;align=center;verticalAlign=middle;whiteSpace=wrap;rounded=0;movable=1;resizable=1;rotatable=1;deletable=1;editable=1;locked=0;connectable=1;" vertex="1" parent="1">
          <mxGeometry x="515.5" y="450" width="180" height="80" as="geometry" />
        </mxCell>
        <mxCell id="gTq0HfhYKbJOwFUmwhoU-52" value="&lt;b&gt;Top user reviews:&lt;br&gt;&lt;/b&gt;" style="text;html=1;strokeColor=none;fillColor=none;align=center;verticalAlign=middle;whiteSpace=wrap;rounded=0;movable=1;resizable=1;rotatable=1;deletable=1;editable=1;locked=0;connectable=1;" vertex="1" parent="1">
          <mxGeometry x="336" y="540" width="180" height="30" as="geometry" />
        </mxCell>
        <mxCell id="gTq0HfhYKbJOwFUmwhoU-53" value="review 1" style="rounded=1;whiteSpace=wrap;html=1;movable=1;resizable=1;rotatable=1;deletable=1;editable=1;locked=0;connectable=1;" vertex="1" parent="1">
          <mxGeometry x="288.5" y="570" width="274.5" height="20" as="geometry" />
        </mxCell>
        <mxCell id="gTq0HfhYKbJOwFUmwhoU-54" value="review 2" style="rounded=1;whiteSpace=wrap;html=1;movable=1;resizable=1;rotatable=1;deletable=1;editable=1;locked=0;connectable=1;" vertex="1" parent="1">
          <mxGeometry x="288.75" y="600" width="274.5" height="20" as="geometry" />
        </mxCell>
        <mxCell id="gTq0HfhYKbJOwFUmwhoU-55" value="review 3" style="rounded=1;whiteSpace=wrap;html=1;movable=1;resizable=1;rotatable=1;deletable=1;editable=1;locked=0;connectable=1;" vertex="1" parent="1">
          <mxGeometry x="288.5" y="630" width="274.5" height="20" as="geometry" />
        </mxCell>
        <mxCell id="gTq0HfhYKbJOwFUmwhoU-56" value="" style="rounded=1;whiteSpace=wrap;html=1;movable=1;resizable=1;rotatable=1;deletable=1;editable=1;locked=0;connectable=1;" vertex="1" parent="1">
          <mxGeometry x="90" y="700" width="670" height="240" as="geometry" />
        </mxCell>
        <mxCell id="gTq0HfhYKbJOwFUmwhoU-57" value="Game 3" style="rounded=1;whiteSpace=wrap;html=1;movable=1;resizable=1;rotatable=1;deletable=1;editable=1;locked=0;connectable=1;" vertex="1" parent="1">
          <mxGeometry x="210" y="730" width="120" height="60" as="geometry" />
        </mxCell>
        <mxCell id="gTq0HfhYKbJOwFUmwhoU-58" value="&lt;b&gt;Price&lt;br&gt;Rating&lt;br&gt;Platforms&lt;br&gt;Current Players&lt;br&gt;&lt;/b&gt;" style="text;html=1;strokeColor=none;fillColor=none;align=center;verticalAlign=middle;whiteSpace=wrap;rounded=0;movable=1;resizable=1;rotatable=1;deletable=1;editable=1;locked=0;connectable=1;" vertex="1" parent="1">
          <mxGeometry x="515" y="720" width="180" height="80" as="geometry" />
        </mxCell>
        <mxCell id="gTq0HfhYKbJOwFUmwhoU-59" value="&lt;b&gt;Top user reviews:&lt;br&gt;&lt;/b&gt;" style="text;html=1;strokeColor=none;fillColor=none;align=center;verticalAlign=middle;whiteSpace=wrap;rounded=0;movable=1;resizable=1;rotatable=1;deletable=1;editable=1;locked=0;connectable=1;" vertex="1" parent="1">
          <mxGeometry x="335.5" y="810" width="180" height="30" as="geometry" />
        </mxCell>
        <mxCell id="gTq0HfhYKbJOwFUmwhoU-60" value="review 1" style="rounded=1;whiteSpace=wrap;html=1;movable=1;resizable=1;rotatable=1;deletable=1;editable=1;locked=0;connectable=1;" vertex="1" parent="1">
          <mxGeometry x="288" y="840" width="274.5" height="20" as="geometry" />
        </mxCell>
        <mxCell id="gTq0HfhYKbJOwFUmwhoU-61" value="review 2" style="rounded=1;whiteSpace=wrap;html=1;movable=1;resizable=1;rotatable=1;deletable=1;editable=1;locked=0;connectable=1;" vertex="1" parent="1">
          <mxGeometry x="288.25" y="870" width="274.5" height="20" as="geometry" />
        </mxCell>
        <mxCell id="gTq0HfhYKbJOwFUmwhoU-62" value="review 3" style="rounded=1;whiteSpace=wrap;html=1;movable=1;resizable=1;rotatable=1;deletable=1;editable=1;locked=0;connectable=1;" vertex="1" parent="1">
          <mxGeometry x="288" y="900" width="274.5" height="20" as="geometry" />
        </mxCell>
        <mxCell id="gTq0HfhYKbJOwFUmwhoU-63" value="" style="rounded=1;whiteSpace=wrap;html=1;movable=1;resizable=1;rotatable=1;deletable=1;editable=1;locked=0;connectable=1;" vertex="1" parent="1">
          <mxGeometry x="90" y="960" width="670" height="240" as="geometry" />
        </mxCell>
        <mxCell id="gTq0HfhYKbJOwFUmwhoU-64" value="Game 4" style="rounded=1;whiteSpace=wrap;html=1;movable=1;resizable=1;rotatable=1;deletable=1;editable=1;locked=0;connectable=1;" vertex="1" parent="1">
          <mxGeometry x="210" y="990" width="120" height="60" as="geometry" />
        </mxCell>
        <mxCell id="gTq0HfhYKbJOwFUmwhoU-65" value="&lt;b&gt;Price&lt;br&gt;Rating&lt;br&gt;Platforms&lt;br&gt;Current Players&lt;br&gt;&lt;/b&gt;" style="text;html=1;strokeColor=none;fillColor=none;align=center;verticalAlign=middle;whiteSpace=wrap;rounded=0;movable=1;resizable=1;rotatable=1;deletable=1;editable=1;locked=0;connectable=1;" vertex="1" parent="1">
          <mxGeometry x="515" y="980" width="180" height="80" as="geometry" />
        </mxCell>
        <mxCell id="gTq0HfhYKbJOwFUmwhoU-66" value="&lt;b&gt;Top user reviews:&lt;br&gt;&lt;/b&gt;" style="text;html=1;strokeColor=none;fillColor=none;align=center;verticalAlign=middle;whiteSpace=wrap;rounded=0;movable=1;resizable=1;rotatable=1;deletable=1;editable=1;locked=0;connectable=1;" vertex="1" parent="1">
          <mxGeometry x="335.5" y="1070" width="180" height="30" as="geometry" />
        </mxCell>
        <mxCell id="gTq0HfhYKbJOwFUmwhoU-67" value="review 1" style="rounded=1;whiteSpace=wrap;html=1;movable=1;resizable=1;rotatable=1;deletable=1;editable=1;locked=0;connectable=1;" vertex="1" parent="1">
          <mxGeometry x="288" y="1100" width="274.5" height="20" as="geometry" />
        </mxCell>
        <mxCell id="gTq0HfhYKbJOwFUmwhoU-68" value="review 2" style="rounded=1;whiteSpace=wrap;html=1;movable=1;resizable=1;rotatable=1;deletable=1;editable=1;locked=0;connectable=1;" vertex="1" parent="1">
          <mxGeometry x="288.25" y="1130" width="274.5" height="20" as="geometry" />
        </mxCell>
        <mxCell id="gTq0HfhYKbJOwFUmwhoU-69" value="review 3" style="rounded=1;whiteSpace=wrap;html=1;movable=1;resizable=1;rotatable=1;deletable=1;editable=1;locked=0;connectable=1;" vertex="1" parent="1">
          <mxGeometry x="288" y="1160" width="274.5" height="20" as="geometry" />
        </mxCell>
        <mxCell id="gTq0HfhYKbJOwFUmwhoU-70" value="" style="rounded=1;whiteSpace=wrap;html=1;movable=1;resizable=1;rotatable=1;deletable=1;editable=1;locked=0;connectable=1;" vertex="1" parent="1">
          <mxGeometry x="91" y="1220" width="670" height="240" as="geometry" />
        </mxCell>
        <mxCell id="gTq0HfhYKbJOwFUmwhoU-71" value="Game 5" style="rounded=1;whiteSpace=wrap;html=1;movable=1;resizable=1;rotatable=1;deletable=1;editable=1;locked=0;connectable=1;" vertex="1" parent="1">
          <mxGeometry x="211" y="1250" width="120" height="60" as="geometry" />
        </mxCell>
        <mxCell id="gTq0HfhYKbJOwFUmwhoU-72" value="&lt;b&gt;Price&lt;br&gt;Rating&lt;br&gt;Platforms&lt;br&gt;Current Players&lt;br&gt;&lt;/b&gt;" style="text;html=1;strokeColor=none;fillColor=none;align=center;verticalAlign=middle;whiteSpace=wrap;rounded=0;movable=1;resizable=1;rotatable=1;deletable=1;editable=1;locked=0;connectable=1;" vertex="1" parent="1">
          <mxGeometry x="516" y="1240" width="180" height="80" as="geometry" />
        </mxCell>
        <mxCell id="gTq0HfhYKbJOwFUmwhoU-73" value="&lt;b&gt;Top user reviews:&lt;br&gt;&lt;/b&gt;" style="text;html=1;strokeColor=none;fillColor=none;align=center;verticalAlign=middle;whiteSpace=wrap;rounded=0;movable=1;resizable=1;rotatable=1;deletable=1;editable=1;locked=0;connectable=1;" vertex="1" parent="1">
          <mxGeometry x="336.5" y="1330" width="180" height="30" as="geometry" />
        </mxCell>
        <mxCell id="gTq0HfhYKbJOwFUmwhoU-74" value="review 1" style="rounded=1;whiteSpace=wrap;html=1;movable=1;resizable=1;rotatable=1;deletable=1;editable=1;locked=0;connectable=1;" vertex="1" parent="1">
          <mxGeometry x="289" y="1360" width="274.5" height="20" as="geometry" />
        </mxCell>
        <mxCell id="gTq0HfhYKbJOwFUmwhoU-75" value="review 2" style="rounded=1;whiteSpace=wrap;html=1;movable=1;resizable=1;rotatable=1;deletable=1;editable=1;locked=0;connectable=1;" vertex="1" parent="1">
          <mxGeometry x="289.25" y="1390" width="274.5" height="20" as="geometry" />
        </mxCell>
        <mxCell id="gTq0HfhYKbJOwFUmwhoU-76" value="review 3" style="rounded=1;whiteSpace=wrap;html=1;movable=1;resizable=1;rotatable=1;deletable=1;editable=1;locked=0;connectable=1;" vertex="1" parent="1">
          <mxGeometry x="289" y="1420" width="274.5" height="20" as="geometry" />
        </mxCell>
        <mxCell id="gTq0HfhYKbJOwFUmwhoU-77" value="Disclaimer: information was fetched on November X, 2023 at XX:XX PM" style="text;html=1;strokeColor=none;fillColor=none;align=center;verticalAlign=middle;whiteSpace=wrap;rounded=0;" vertex="1" parent="1">
          <mxGeometry x="230" y="1470" width="420" height="30" as="geometry" />
        </mxCell>
      </root>
    </mxGraphModel>
  </diagram>
</mxfile>
